# 3ds Max Wavefront OBJ Exporter v0.97b - (c)2007 guruware
# File Created: 28.03.2015 23:33:05

mtllib worker.mtl

#
# object Sphere001
#

v  0.00 1.50 -0.00
v  -0.00 1.40 -0.38
v  -0.19 1.40 -0.32
v  -0.32 1.40 -0.19
v  -0.38 1.40 -0.00
v  -0.32 1.40 0.19
v  -0.19 1.40 0.32
v  -0.00 1.40 0.38
v  0.19 1.40 0.32
v  0.32 1.40 0.19
v  0.38 1.40 0.00
v  0.32 1.40 -0.19
v  0.19 1.40 -0.32
v  -0.00 1.13 -0.65
v  -0.32 1.13 -0.56
v  -0.56 1.13 -0.32
v  -0.65 1.13 -0.00
v  -0.56 1.13 0.32
v  -0.32 1.13 0.56
v  -0.00 1.13 0.65
v  0.32 1.13 0.56
v  0.56 1.13 0.32
v  0.65 1.13 0.00
v  0.56 1.13 -0.32
v  0.32 1.13 -0.56
v  -0.00 0.75 -0.75
v  -0.38 0.75 -0.65
v  -0.65 0.75 -0.38
v  -0.75 0.75 -0.00
v  -0.65 0.75 0.37
v  -0.38 0.75 0.65
v  -0.00 0.75 0.75
v  0.37 0.75 0.65
v  0.65 0.75 0.38
v  0.75 0.75 0.00
v  0.65 0.75 -0.37
v  0.38 0.75 -0.65
v  -0.00 0.37 -0.65
v  -0.32 0.37 -0.56
v  -0.56 0.37 -0.32
v  -0.65 0.37 -0.00
v  -0.56 0.37 0.32
v  -0.32 0.37 0.56
v  -0.00 0.37 0.65
v  0.32 0.37 0.56
v  0.56 0.37 0.32
v  0.65 0.37 0.00
v  0.56 0.37 -0.32
v  0.32 0.37 -0.56
v  -0.00 0.10 -0.38
v  -0.19 0.10 -0.32
v  -0.32 0.10 -0.19
v  -0.38 0.10 -0.00
v  -0.32 0.10 0.19
v  -0.19 0.10 0.32
v  -0.00 0.10 0.38
v  0.19 0.10 0.32
v  0.32 0.10 0.19
v  0.38 0.10 0.00
v  0.32 0.10 -0.19
v  0.19 0.10 -0.32
v  0.00 0.00 -0.00
# 62 vertices

vn -0.07 0.96 -0.26
vn -0.19 0.96 -0.19
vn -0.26 0.96 -0.07
vn -0.26 0.96 0.07
vn -0.19 0.96 0.19
vn -0.07 0.96 0.26
vn 0.07 0.96 0.26
vn 0.19 0.96 0.19
vn 0.26 0.96 0.07
vn 0.26 0.96 -0.07
vn 0.19 0.96 -0.19
vn 0.07 0.96 -0.26
vn -0.19 0.69 -0.69
vn -0.51 0.69 -0.51
vn -0.69 0.69 -0.19
vn -0.69 0.69 0.19
vn -0.51 0.69 0.51
vn -0.19 0.69 0.69
vn 0.19 0.69 0.69
vn 0.51 0.69 0.51
vn 0.69 0.69 0.19
vn 0.69 0.69 -0.19
vn 0.51 0.69 -0.51
vn 0.19 0.69 -0.69
vn -0.25 0.25 -0.94
vn -0.68 0.25 -0.68
vn -0.94 0.25 -0.25
vn -0.94 0.25 0.25
vn -0.68 0.25 0.68
vn -0.25 0.25 0.94
vn 0.25 0.25 0.94
vn 0.68 0.25 0.68
vn 0.94 0.25 0.25
vn 0.94 0.25 -0.25
vn 0.68 0.25 -0.68
vn 0.25 0.25 -0.94
vn -0.25 -0.25 -0.94
vn -0.68 -0.25 -0.68
vn -0.94 -0.25 -0.25
vn -0.94 -0.25 0.25
vn -0.68 -0.25 0.68
vn -0.25 -0.25 0.94
vn 0.25 -0.25 0.94
vn 0.68 -0.25 0.68
vn 0.94 -0.25 0.25
vn 0.94 -0.25 -0.25
vn 0.68 -0.25 -0.68
vn 0.25 -0.25 -0.94
vn -0.19 -0.69 -0.69
vn -0.51 -0.69 -0.51
vn -0.69 -0.69 -0.19
vn -0.69 -0.69 0.19
vn -0.51 -0.69 0.51
vn -0.19 -0.69 0.69
vn 0.19 -0.69 0.69
vn 0.51 -0.69 0.51
vn 0.69 -0.69 0.19
vn 0.69 -0.69 -0.19
vn 0.51 -0.69 -0.51
vn 0.19 -0.69 -0.69
vn -0.07 -0.96 -0.26
vn -0.19 -0.96 -0.19
vn -0.26 -0.96 -0.07
vn -0.26 -0.96 0.07
vn -0.19 -0.96 0.19
vn -0.07 -0.96 0.26
vn 0.07 -0.96 0.26
vn 0.19 -0.96 0.19
vn 0.26 -0.96 0.07
vn 0.26 -0.96 -0.07
vn 0.19 -0.96 -0.19
vn 0.07 -0.96 -0.26
# 72 vertex normals

vt 0.00 1.00 0.00
vt 0.00 0.83 0.00
vt 0.08 0.83 0.00
vt 0.08 1.00 0.00
vt 0.17 0.83 0.00
vt 0.17 1.00 0.00
vt 0.25 0.83 0.00
vt 0.25 1.00 0.00
vt 0.33 0.83 0.00
vt 0.33 1.00 0.00
vt 0.42 0.83 0.00
vt 0.42 1.00 0.00
vt 0.50 0.83 0.00
vt 0.50 1.00 0.00
vt 0.58 0.83 0.00
vt 0.58 1.00 0.00
vt 0.67 0.83 0.00
vt 0.67 1.00 0.00
vt 0.75 0.83 0.00
vt 0.75 1.00 0.00
vt 0.83 0.83 0.00
vt 0.83 1.00 0.00
vt 0.92 0.83 0.00
vt 0.92 1.00 0.00
vt 1.00 0.83 0.00
vt 0.00 0.67 0.00
vt 0.08 0.67 0.00
vt 0.17 0.67 0.00
vt 0.25 0.67 0.00
vt 0.33 0.67 0.00
vt 0.42 0.67 0.00
vt 0.50 0.67 0.00
vt 0.58 0.67 0.00
vt 0.67 0.67 0.00
vt 0.75 0.67 0.00
vt 0.83 0.67 0.00
vt 0.92 0.67 0.00
vt 1.00 0.67 0.00
vt 0.00 0.50 0.00
vt 0.08 0.50 0.00
vt 0.17 0.50 0.00
vt 0.25 0.50 0.00
vt 0.33 0.50 0.00
vt 0.42 0.50 0.00
vt 0.50 0.50 0.00
vt 0.58 0.50 0.00
vt 0.67 0.50 0.00
vt 0.75 0.50 0.00
vt 0.83 0.50 0.00
vt 0.92 0.50 0.00
vt 1.00 0.50 0.00
vt 0.00 0.33 0.00
vt 0.08 0.33 0.00
vt 0.17 0.33 0.00
vt 0.25 0.33 0.00
vt 0.33 0.33 0.00
vt 0.42 0.33 0.00
vt 0.50 0.33 0.00
vt 0.58 0.33 0.00
vt 0.67 0.33 0.00
vt 0.75 0.33 0.00
vt 0.83 0.33 0.00
vt 0.92 0.33 0.00
vt 1.00 0.33 0.00
vt 0.00 0.17 0.00
vt 0.08 0.17 0.00
vt 0.17 0.17 0.00
vt 0.25 0.17 0.00
vt 0.33 0.17 0.00
vt 0.42 0.17 0.00
vt 0.50 0.17 0.00
vt 0.58 0.17 0.00
vt 0.67 0.17 0.00
vt 0.75 0.17 0.00
vt 0.83 0.17 0.00
vt 0.92 0.17 0.00
vt 1.00 0.17 0.00
vt 0.00 0.00 0.00
vt 0.08 0.00 0.00
vt 0.17 0.00 0.00
vt 0.25 0.00 0.00
vt 0.33 0.00 0.00
vt 0.42 0.00 0.00
vt 0.50 0.00 0.00
vt 0.58 0.00 0.00
vt 0.67 0.00 0.00
vt 0.75 0.00 0.00
vt 0.83 0.00 0.00
vt 0.92 0.00 0.00
# 89 texture coords

g Sphere001
usemtl wire_143225087
s off
f 1/1/1 2/2/1 3/3/1 
f 1/4/2 3/3/2 4/5/2 
f 1/6/3 4/5/3 5/7/3 
f 1/8/4 5/7/4 6/9/4 
f 1/10/5 6/9/5 7/11/5 
f 1/12/6 7/11/6 8/13/6 
f 1/14/7 8/13/7 9/15/7 
f 1/16/8 9/15/8 10/17/8 
f 1/18/9 10/17/9 11/19/9 
f 1/20/10 11/19/10 12/21/10 
f 1/22/11 12/21/11 13/23/11 
f 1/24/12 13/23/12 2/25/12 
f 2/2/13 14/26/13 15/27/13 3/3/13 
f 3/3/14 15/27/14 16/28/14 4/5/14 
f 4/5/15 16/28/15 17/29/15 5/7/15 
f 5/7/16 17/29/16 18/30/16 6/9/16 
f 6/9/17 18/30/17 19/31/17 7/11/17 
f 7/11/18 19/31/18 20/32/18 8/13/18 
f 8/13/19 20/32/19 21/33/19 9/15/19 
f 9/15/20 21/33/20 22/34/20 10/17/20 
f 10/17/21 22/34/21 23/35/21 11/19/21 
f 11/19/22 23/35/22 24/36/22 12/21/22 
f 12/21/23 24/36/23 25/37/23 13/23/23 
f 13/23/24 25/37/24 14/38/24 2/25/24 
f 14/26/25 26/39/25 27/40/25 15/27/25 
f 15/27/26 27/40/26 28/41/26 16/28/26 
f 16/28/27 28/41/27 29/42/27 17/29/27 
f 17/29/28 29/42/28 30/43/28 18/30/28 
f 18/30/29 30/43/29 31/44/29 19/31/29 
f 19/31/30 31/44/30 32/45/30 20/32/30 
f 20/32/31 32/45/31 33/46/31 21/33/31 
f 21/33/32 33/46/32 34/47/32 22/34/32 
f 22/34/33 34/47/33 35/48/33 23/35/33 
f 23/35/34 35/48/34 36/49/34 24/36/34 
f 24/36/35 36/49/35 37/50/35 25/37/35 
f 25/37/36 37/50/36 26/51/36 14/38/36 
f 26/39/37 38/52/37 39/53/37 27/40/37 
f 27/40/38 39/53/38 40/54/38 28/41/38 
f 28/41/39 40/54/39 41/55/39 29/42/39 
f 29/42/40 41/55/40 42/56/40 30/43/40 
f 30/43/41 42/56/41 43/57/41 31/44/41 
f 31/44/42 43/57/42 44/58/42 32/45/42 
f 32/45/43 44/58/43 45/59/43 33/46/43 
f 33/46/44 45/59/44 46/60/44 34/47/44 
f 34/47/45 46/60/45 47/61/45 35/48/45 
f 35/48/46 47/61/46 48/62/46 36/49/46 
f 36/49/47 48/62/47 49/63/47 37/50/47 
f 37/50/48 49/63/48 38/64/48 26/51/48 
f 38/52/49 50/65/49 51/66/49 39/53/49 
f 39/53/50 51/66/50 52/67/50 40/54/50 
f 40/54/51 52/67/51 53/68/51 41/55/51 
f 41/55/52 53/68/52 54/69/52 42/56/52 
f 42/56/53 54/69/53 55/70/53 43/57/53 
f 43/57/54 55/70/54 56/71/54 44/58/54 
f 44/58/55 56/71/55 57/72/55 45/59/55 
f 45/59/56 57/72/56 58/73/56 46/60/56 
f 46/60/57 58/73/57 59/74/57 47/61/57 
f 47/61/58 59/74/58 60/75/58 48/62/58 
f 48/62/59 60/75/59 61/76/59 49/63/59 
f 49/63/60 61/76/60 50/77/60 38/64/60 
f 62/78/61 51/66/61 50/65/61 
f 62/79/62 52/67/62 51/66/62 
f 62/80/63 53/68/63 52/67/63 
f 62/81/64 54/69/64 53/68/64 
f 62/82/65 55/70/65 54/69/65 
f 62/83/66 56/71/66 55/70/66 
f 62/84/67 57/72/67 56/71/67 
f 62/85/68 58/73/68 57/72/68 
f 62/86/69 59/74/69 58/73/69 
f 62/87/70 60/75/70 59/74/70 
f 62/88/71 61/76/71 60/75/71 
f 62/89/72 50/77/72 61/76/72 
# 48 polygons - 24 triangles

