# 3ds Max Wavefront OBJ Exporter v0.97b - (c)2007 guruware
# File Created: 18.09.2013 21:19:18

#
# object Plane001
#

v  -127995.05 0.00 127980.30
v  -110928.38 0.00 127980.30
v  -93861.72 0.00 127980.30
v  -76795.05 0.00 127980.30
v  -59728.39 0.00 127980.30
v  -42661.72 0.00 127980.30
v  -25595.06 0.00 127980.30
v  -8528.39 0.00 127980.30
v  8538.27 0.00 127980.30
v  25604.94 0.00 127980.30
v  42671.61 0.00 127980.30
v  59738.27 0.00 127980.30
v  76804.93 0.00 127980.30
v  93871.59 0.00 127980.30
v  110938.26 0.00 127980.30
v  128004.92 0.00 127980.30
v  -127995.05 0.00 110913.64
v  -110928.38 0.00 110913.64
v  -93861.72 0.00 110913.64
v  -76795.05 0.00 110913.64
v  -59728.39 0.00 110913.64
v  -42661.72 0.00 110913.64
v  -25595.06 0.00 110913.64
v  -8528.39 0.00 110913.64
v  8538.27 0.00 110913.64
v  25604.94 0.00 110913.64
v  42671.61 0.00 110913.64
v  59738.27 0.00 110913.64
v  76804.93 0.00 110913.64
v  93871.59 0.00 110913.64
v  110938.26 0.00 110913.64
v  128004.92 0.00 110913.64
v  -127995.05 0.00 93846.98
v  -110928.38 0.00 93846.98
v  -93861.72 0.00 93846.98
v  -76795.05 0.00 93846.98
v  -59728.39 0.00 93846.98
v  -42661.72 0.00 93846.98
v  -25595.06 0.00 93846.98
v  -8528.39 0.00 93846.98
v  8538.27 0.00 93846.98
v  25604.94 0.00 93846.98
v  42671.61 0.00 93846.98
v  59738.27 0.00 93846.98
v  76804.93 0.00 93846.98
v  93871.59 0.00 93846.98
v  110938.26 0.00 93846.98
v  128004.92 0.00 93846.98
v  -127995.05 0.00 76780.31
v  -110928.38 0.00 76780.31
v  -93861.72 0.00 76780.31
v  -76795.05 0.00 76780.31
v  -59728.39 0.00 76780.31
v  -42661.72 0.00 76780.31
v  -25595.06 0.00 76780.31
v  -8528.39 0.00 76780.31
v  8538.27 0.00 76780.31
v  25604.94 0.00 76780.31
v  42671.61 0.00 76780.31
v  59738.27 0.00 76780.31
v  76804.93 0.00 76780.31
v  93871.59 0.00 76780.31
v  110938.26 0.00 76780.31
v  128004.92 0.00 76780.31
v  -127995.05 0.00 59713.65
v  -110928.38 0.00 59713.65
v  -93861.72 0.00 59713.65
v  -76795.05 0.00 59713.65
v  -59728.39 0.00 59713.65
v  -42661.72 0.00 59713.65
v  -25595.06 0.00 59713.65
v  -8528.39 0.00 59713.65
v  8538.27 0.00 59713.65
v  25604.94 0.00 59713.65
v  42671.61 0.00 59713.65
v  59738.27 0.00 59713.65
v  76804.93 0.00 59713.65
v  93871.59 0.00 59713.65
v  110938.26 0.00 59713.65
v  128004.92 0.00 59713.65
v  -127995.05 0.00 42646.98
v  -110928.38 0.00 42646.98
v  -93861.72 0.00 42646.98
v  -76795.05 0.00 42646.98
v  -59728.39 0.00 42646.98
v  -42661.72 0.00 42646.98
v  -25595.06 0.00 42646.98
v  -8528.39 0.00 42646.98
v  8538.27 0.00 42646.98
v  25604.94 0.00 42646.98
v  42671.61 0.00 42646.98
v  59738.27 0.00 42646.98
v  76804.93 0.00 42646.98
v  93871.59 0.00 42646.98
v  110938.26 0.00 42646.98
v  128004.92 0.00 42646.98
v  -127995.05 0.00 25580.32
v  -110928.38 0.00 25580.32
v  -93861.72 0.00 25580.32
v  -76795.05 0.00 25580.32
v  -59728.39 0.00 25580.32
v  -42661.72 0.00 25580.32
v  -25595.06 0.00 25580.32
v  -8528.39 0.00 25580.32
v  8538.27 0.00 25580.32
v  25604.94 0.00 25580.32
v  42671.61 0.00 25580.32
v  59738.27 0.00 25580.32
v  76804.93 0.00 25580.32
v  93871.59 0.00 25580.32
v  110938.26 0.00 25580.32
v  128004.92 0.00 25580.32
v  -127995.05 0.00 8513.65
v  -110928.38 0.00 8513.65
v  -93861.72 0.00 8513.65
v  -76795.05 0.00 8513.65
v  -59728.39 0.00 8513.65
v  -42661.72 0.00 8513.65
v  -25595.06 0.00 8513.65
v  -8528.39 0.00 8513.65
v  8538.27 0.00 8513.65
v  25604.94 0.00 8513.65
v  42671.61 0.00 8513.65
v  59738.27 0.00 8513.65
v  76804.93 0.00 8513.65
v  93871.59 0.00 8513.65
v  110938.26 0.00 8513.65
v  128004.92 0.00 8513.65
v  -127995.05 0.00 -8553.01
v  -110928.38 0.00 -8553.01
v  -93861.72 0.00 -8553.01
v  -76795.05 0.00 -8553.01
v  -59728.39 0.00 -8553.01
v  -42661.72 0.00 -8553.01
v  -25595.06 0.00 -8553.01
v  -8528.39 0.00 -8553.01
v  8538.27 0.00 -8553.01
v  25604.94 0.00 -8553.01
v  42671.61 0.00 -8553.01
v  59738.27 0.00 -8553.01
v  76804.93 0.00 -8553.01
v  93871.59 0.00 -8553.01
v  110938.26 0.00 -8553.01
v  128004.92 0.00 -8553.01
v  -127995.05 0.00 -25619.68
v  -110928.38 0.00 -25619.68
v  -93861.72 0.00 -25619.68
v  -76795.05 0.00 -25619.68
v  -59728.39 0.00 -25619.68
v  -42661.72 0.00 -25619.68
v  -25595.06 0.00 -25619.68
v  -8528.39 0.00 -25619.68
v  8538.27 0.00 -25619.68
v  25604.94 0.00 -25619.68
v  42671.61 0.00 -25619.68
v  59738.27 0.00 -25619.68
v  76804.93 0.00 -25619.68
v  93871.59 0.00 -25619.68
v  110938.26 0.00 -25619.68
v  128004.92 0.00 -25619.68
v  -127995.05 0.00 -42686.34
v  -110928.38 0.00 -42686.34
v  -93861.72 0.00 -42686.34
v  -76795.05 0.00 -42686.34
v  -59728.39 0.00 -42686.34
v  -42661.72 0.00 -42686.34
v  -25595.06 0.00 -42686.34
v  -8528.39 0.00 -42686.34
v  8538.27 0.00 -42686.34
v  25604.94 0.00 -42686.34
v  42671.61 0.00 -42686.34
v  59738.27 0.00 -42686.34
v  76804.93 0.00 -42686.34
v  93871.59 0.00 -42686.34
v  110938.26 0.00 -42686.34
v  128004.92 0.00 -42686.34
v  -127995.05 0.00 -59753.01
v  -110928.38 0.00 -59753.01
v  -93861.72 0.00 -59753.01
v  -76795.05 0.00 -59753.01
v  -59728.39 0.00 -59753.01
v  -42661.72 0.00 -59753.01
v  -25595.06 0.00 -59753.01
v  -8528.39 0.00 -59753.01
v  8538.27 0.00 -59753.01
v  25604.94 0.00 -59753.01
v  42671.61 0.00 -59753.01
v  59738.27 0.00 -59753.01
v  76804.93 0.00 -59753.01
v  93871.59 0.00 -59753.01
v  110938.26 0.00 -59753.01
v  128004.92 0.00 -59753.01
v  -127995.05 0.00 -76819.67
v  -110928.38 0.00 -76819.67
v  -93861.72 0.00 -76819.67
v  -76795.05 0.00 -76819.67
v  -59728.39 0.00 -76819.67
v  -42661.72 0.00 -76819.67
v  -25595.06 0.00 -76819.67
v  -8528.39 0.00 -76819.67
v  8538.27 0.00 -76819.67
v  25604.94 0.00 -76819.67
v  42671.61 0.00 -76819.67
v  59738.27 0.00 -76819.67
v  76804.93 0.00 -76819.67
v  93871.59 0.00 -76819.67
v  110938.26 0.00 -76819.67
v  128004.92 0.00 -76819.67
v  -127995.05 0.00 -93886.34
v  -110928.38 0.00 -93886.34
v  -93861.72 0.00 -93886.34
v  -76795.05 0.00 -93886.34
v  -59728.39 0.00 -93886.34
v  -42661.72 0.00 -93886.34
v  -25595.06 0.00 -93886.34
v  -8528.39 0.00 -93886.34
v  8538.27 0.00 -93886.34
v  25604.94 0.00 -93886.34
v  42671.61 0.00 -93886.34
v  59738.27 0.00 -93886.34
v  76804.93 0.00 -93886.34
v  93871.59 0.00 -93886.34
v  110938.26 0.00 -93886.34
v  128004.92 0.00 -93886.34
v  -127995.05 0.00 -110953.00
v  -110928.38 0.00 -110953.00
v  -93861.72 0.00 -110953.00
v  -76795.05 0.00 -110953.00
v  -59728.39 0.00 -110953.00
v  -42661.72 0.00 -110953.00
v  -25595.06 0.00 -110953.00
v  -8528.39 0.00 -110953.00
v  8538.27 0.00 -110953.00
v  25604.94 0.00 -110953.00
v  42671.61 0.00 -110953.00
v  59738.27 0.00 -110953.00
v  76804.93 0.00 -110953.00
v  93871.59 0.00 -110953.00
v  110938.26 0.00 -110953.00
v  128004.92 0.00 -110953.00
v  -127995.05 0.00 -128019.66
v  -110928.38 0.00 -128019.66
v  -93861.72 0.00 -128019.66
v  -76795.05 0.00 -128019.66
v  -59728.39 0.00 -128019.66
v  -42661.72 0.00 -128019.66
v  -25595.06 0.00 -128019.66
v  -8528.39 0.00 -128019.66
v  8538.27 0.00 -128019.66
v  25604.94 0.00 -128019.66
v  42671.61 0.00 -128019.66
v  59738.27 0.00 -128019.66
v  76804.93 0.00 -128019.66
v  93871.59 0.00 -128019.66
v  110938.26 0.00 -128019.66
v  128004.92 0.00 -128019.66
# 256 vertices

vn 0.00 1.00 -0.00
# 1 vertex normals

vt 0.02 2.15 16.00
vt 0.02 0.02 16.00
vt 2.15 0.02 16.00
vt 2.15 2.15 16.00
vt 4.28 0.02 16.00
vt 4.28 2.15 16.00
vt 6.41 0.02 16.00
vt 6.41 2.15 16.00
vt 8.54 0.02 16.00
vt 8.54 2.15 16.00
vt 10.67 0.02 16.00
vt 10.67 2.15 16.00
vt 12.80 0.02 16.00
vt 12.80 2.15 16.00
vt 14.93 0.02 16.00
vt 14.93 2.15 16.00
vt 17.07 0.02 16.00
vt 17.07 2.15 16.00
vt 19.20 0.02 16.00
vt 19.20 2.15 16.00
vt 21.33 0.02 16.00
vt 21.33 2.15 16.00
vt 23.46 0.02 16.00
vt 23.46 2.15 16.00
vt 25.59 0.02 16.00
vt 25.59 2.15 16.00
vt 27.72 0.02 16.00
vt 27.72 2.15 16.00
vt 29.85 0.02 16.00
vt 29.85 2.15 16.00
vt 31.98 0.02 16.00
vt 31.98 2.15 16.00
vt 0.02 4.28 16.00
vt 2.15 4.28 16.00
vt 4.28 4.28 16.00
vt 6.41 4.28 16.00
vt 8.54 4.28 16.00
vt 10.67 4.28 16.00
vt 12.80 4.28 16.00
vt 14.93 4.28 16.00
vt 17.07 4.28 16.00
vt 19.20 4.28 16.00
vt 21.33 4.28 16.00
vt 23.46 4.28 16.00
vt 25.59 4.28 16.00
vt 27.72 4.28 16.00
vt 29.85 4.28 16.00
vt 31.98 4.28 16.00
vt 0.02 6.41 16.00
vt 2.15 6.41 16.00
vt 4.28 6.41 16.00
vt 6.41 6.41 16.00
vt 8.54 6.41 16.00
vt 10.67 6.41 16.00
vt 12.80 6.41 16.00
vt 14.93 6.41 16.00
vt 17.07 6.41 16.00
vt 19.20 6.41 16.00
vt 21.33 6.41 16.00
vt 23.46 6.41 16.00
vt 25.59 6.41 16.00
vt 27.72 6.41 16.00
vt 29.85 6.41 16.00
vt 31.98 6.41 16.00
vt 0.02 8.54 16.00
vt 2.15 8.54 16.00
vt 4.28 8.54 16.00
vt 6.41 8.54 16.00
vt 8.54 8.54 16.00
vt 10.67 8.54 16.00
vt 12.80 8.54 16.00
vt 14.93 8.54 16.00
vt 17.07 8.54 16.00
vt 19.20 8.54 16.00
vt 21.33 8.54 16.00
vt 23.46 8.54 16.00
vt 25.59 8.54 16.00
vt 27.72 8.54 16.00
vt 29.85 8.54 16.00
vt 31.98 8.54 16.00
vt 0.02 10.67 16.00
vt 2.15 10.67 16.00
vt 4.28 10.67 16.00
vt 6.41 10.67 16.00
vt 8.54 10.67 16.00
vt 10.67 10.67 16.00
vt 12.80 10.67 16.00
vt 14.93 10.67 16.00
vt 17.07 10.67 16.00
vt 19.20 10.67 16.00
vt 21.33 10.67 16.00
vt 23.46 10.67 16.00
vt 25.59 10.67 16.00
vt 27.72 10.67 16.00
vt 29.85 10.67 16.00
vt 31.98 10.67 16.00
vt 0.02 12.80 16.00
vt 2.15 12.80 16.00
vt 4.28 12.80 16.00
vt 6.41 12.80 16.00
vt 8.54 12.80 16.00
vt 10.67 12.80 16.00
vt 12.80 12.80 16.00
vt 14.93 12.80 16.00
vt 17.07 12.80 16.00
vt 19.20 12.80 16.00
vt 21.33 12.80 16.00
vt 23.46 12.80 16.00
vt 25.59 12.80 16.00
vt 27.72 12.80 16.00
vt 29.85 12.80 16.00
vt 31.98 12.80 16.00
vt 0.02 14.93 16.00
vt 2.15 14.93 16.00
vt 4.28 14.93 16.00
vt 6.41 14.93 16.00
vt 8.54 14.93 16.00
vt 10.67 14.93 16.00
vt 12.80 14.93 16.00
vt 14.93 14.93 16.00
vt 17.07 14.93 16.00
vt 19.20 14.93 16.00
vt 21.33 14.93 16.00
vt 23.46 14.93 16.00
vt 25.59 14.93 16.00
vt 27.72 14.93 16.00
vt 29.85 14.93 16.00
vt 31.98 14.93 16.00
vt 0.02 17.07 16.00
vt 2.15 17.07 16.00
vt 4.28 17.07 16.00
vt 6.41 17.07 16.00
vt 8.54 17.07 16.00
vt 10.67 17.07 16.00
vt 12.80 17.07 16.00
vt 14.93 17.07 16.00
vt 17.07 17.07 16.00
vt 19.20 17.07 16.00
vt 21.33 17.07 16.00
vt 23.46 17.07 16.00
vt 25.59 17.07 16.00
vt 27.72 17.07 16.00
vt 29.85 17.07 16.00
vt 31.98 17.07 16.00
vt 0.02 19.20 16.00
vt 2.15 19.20 16.00
vt 4.28 19.20 16.00
vt 6.41 19.20 16.00
vt 8.54 19.20 16.00
vt 10.67 19.20 16.00
vt 12.80 19.20 16.00
vt 14.93 19.20 16.00
vt 17.07 19.20 16.00
vt 19.20 19.20 16.00
vt 21.33 19.20 16.00
vt 23.46 19.20 16.00
vt 25.59 19.20 16.00
vt 27.72 19.20 16.00
vt 29.85 19.20 16.00
vt 31.98 19.20 16.00
vt 0.02 21.33 16.00
vt 2.15 21.33 16.00
vt 4.28 21.33 16.00
vt 6.41 21.33 16.00
vt 8.54 21.33 16.00
vt 10.67 21.33 16.00
vt 12.80 21.33 16.00
vt 14.93 21.33 16.00
vt 17.07 21.33 16.00
vt 19.20 21.33 16.00
vt 21.33 21.33 16.00
vt 23.46 21.33 16.00
vt 25.59 21.33 16.00
vt 27.72 21.33 16.00
vt 29.85 21.33 16.00
vt 31.98 21.33 16.00
vt 0.02 23.46 16.00
vt 2.15 23.46 16.00
vt 4.28 23.46 16.00
vt 6.41 23.46 16.00
vt 8.54 23.46 16.00
vt 10.67 23.46 16.00
vt 12.80 23.46 16.00
vt 14.93 23.46 16.00
vt 17.07 23.46 16.00
vt 19.20 23.46 16.00
vt 21.33 23.46 16.00
vt 23.46 23.46 16.00
vt 25.59 23.46 16.00
vt 27.72 23.46 16.00
vt 29.85 23.46 16.00
vt 31.98 23.46 16.00
vt 0.02 25.59 16.00
vt 2.15 25.59 16.00
vt 4.28 25.59 16.00
vt 6.41 25.59 16.00
vt 8.54 25.59 16.00
vt 10.67 25.59 16.00
vt 12.80 25.59 16.00
vt 14.93 25.59 16.00
vt 17.07 25.59 16.00
vt 19.20 25.59 16.00
vt 21.33 25.59 16.00
vt 23.46 25.59 16.00
vt 25.59 25.59 16.00
vt 27.72 25.59 16.00
vt 29.85 25.59 16.00
vt 31.98 25.59 16.00
vt 0.02 27.72 16.00
vt 2.15 27.72 16.00
vt 4.28 27.72 16.00
vt 6.41 27.72 16.00
vt 8.54 27.72 16.00
vt 10.67 27.72 16.00
vt 12.80 27.72 16.00
vt 14.93 27.72 16.00
vt 17.07 27.72 16.00
vt 19.20 27.72 16.00
vt 21.33 27.72 16.00
vt 23.46 27.72 16.00
vt 25.59 27.72 16.00
vt 27.72 27.72 16.00
vt 29.85 27.72 16.00
vt 31.98 27.72 16.00
vt 0.02 29.85 16.00
vt 2.15 29.85 16.00
vt 4.28 29.85 16.00
vt 6.41 29.85 16.00
vt 8.54 29.85 16.00
vt 10.67 29.85 16.00
vt 12.80 29.85 16.00
vt 14.93 29.85 16.00
vt 17.07 29.85 16.00
vt 19.20 29.85 16.00
vt 21.33 29.85 16.00
vt 23.46 29.85 16.00
vt 25.59 29.85 16.00
vt 27.72 29.85 16.00
vt 29.85 29.85 16.00
vt 31.98 29.85 16.00
vt 0.02 31.98 16.00
vt 2.15 31.98 16.00
vt 4.28 31.98 16.00
vt 6.41 31.98 16.00
vt 8.54 31.98 16.00
vt 10.67 31.98 16.00
vt 12.80 31.98 16.00
vt 14.93 31.98 16.00
vt 17.07 31.98 16.00
vt 19.20 31.98 16.00
vt 21.33 31.98 16.00
vt 23.46 31.98 16.00
vt 25.59 31.98 16.00
vt 27.72 31.98 16.00
vt 29.85 31.98 16.00
vt 31.98 31.98 16.00
# 256 texture coords

g Plane001
s 1
f 17/1/1 1/2/1 2/3/1 18/4/1 
f 18/4/1 2/3/1 3/5/1 19/6/1 
f 19/6/1 3/5/1 4/7/1 20/8/1 
f 20/8/1 4/7/1 5/9/1 21/10/1 
f 21/10/1 5/9/1 6/11/1 22/12/1 
f 22/12/1 6/11/1 7/13/1 23/14/1 
f 23/14/1 7/13/1 8/15/1 24/16/1 
f 24/16/1 8/15/1 9/17/1 25/18/1 
f 25/18/1 9/17/1 10/19/1 26/20/1 
f 26/20/1 10/19/1 11/21/1 27/22/1 
f 27/22/1 11/21/1 12/23/1 28/24/1 
f 28/24/1 12/23/1 13/25/1 29/26/1 
f 29/26/1 13/25/1 14/27/1 30/28/1 
f 30/28/1 14/27/1 15/29/1 31/30/1 
f 31/30/1 15/29/1 16/31/1 32/32/1 
f 33/33/1 17/1/1 18/4/1 34/34/1 
f 34/34/1 18/4/1 19/6/1 35/35/1 
f 35/35/1 19/6/1 20/8/1 36/36/1 
f 36/36/1 20/8/1 21/10/1 37/37/1 
f 37/37/1 21/10/1 22/12/1 38/38/1 
f 38/38/1 22/12/1 23/14/1 39/39/1 
f 39/39/1 23/14/1 24/16/1 40/40/1 
f 40/40/1 24/16/1 25/18/1 41/41/1 
f 41/41/1 25/18/1 26/20/1 42/42/1 
f 42/42/1 26/20/1 27/22/1 43/43/1 
f 43/43/1 27/22/1 28/24/1 44/44/1 
f 44/44/1 28/24/1 29/26/1 45/45/1 
f 45/45/1 29/26/1 30/28/1 46/46/1 
f 46/46/1 30/28/1 31/30/1 47/47/1 
f 47/47/1 31/30/1 32/32/1 48/48/1 
f 49/49/1 33/33/1 34/34/1 50/50/1 
f 50/50/1 34/34/1 35/35/1 51/51/1 
f 51/51/1 35/35/1 36/36/1 52/52/1 
f 52/52/1 36/36/1 37/37/1 53/53/1 
f 53/53/1 37/37/1 38/38/1 54/54/1 
f 54/54/1 38/38/1 39/39/1 55/55/1 
f 55/55/1 39/39/1 40/40/1 56/56/1 
f 56/56/1 40/40/1 41/41/1 57/57/1 
f 57/57/1 41/41/1 42/42/1 58/58/1 
f 58/58/1 42/42/1 43/43/1 59/59/1 
f 59/59/1 43/43/1 44/44/1 60/60/1 
f 60/60/1 44/44/1 45/45/1 61/61/1 
f 61/61/1 45/45/1 46/46/1 62/62/1 
f 62/62/1 46/46/1 47/47/1 63/63/1 
f 63/63/1 47/47/1 48/48/1 64/64/1 
f 65/65/1 49/49/1 50/50/1 66/66/1 
f 66/66/1 50/50/1 51/51/1 67/67/1 
f 67/67/1 51/51/1 52/52/1 68/68/1 
f 68/68/1 52/52/1 53/53/1 69/69/1 
f 69/69/1 53/53/1 54/54/1 70/70/1 
f 70/70/1 54/54/1 55/55/1 71/71/1 
f 71/71/1 55/55/1 56/56/1 72/72/1 
f 72/72/1 56/56/1 57/57/1 73/73/1 
f 73/73/1 57/57/1 58/58/1 74/74/1 
f 74/74/1 58/58/1 59/59/1 75/75/1 
f 75/75/1 59/59/1 60/60/1 76/76/1 
f 76/76/1 60/60/1 61/61/1 77/77/1 
f 77/77/1 61/61/1 62/62/1 78/78/1 
f 78/78/1 62/62/1 63/63/1 79/79/1 
f 79/79/1 63/63/1 64/64/1 80/80/1 
f 81/81/1 65/65/1 66/66/1 82/82/1 
f 82/82/1 66/66/1 67/67/1 83/83/1 
f 83/83/1 67/67/1 68/68/1 84/84/1 
f 84/84/1 68/68/1 69/69/1 85/85/1 
f 85/85/1 69/69/1 70/70/1 86/86/1 
f 86/86/1 70/70/1 71/71/1 87/87/1 
f 87/87/1 71/71/1 72/72/1 88/88/1 
f 88/88/1 72/72/1 73/73/1 89/89/1 
f 89/89/1 73/73/1 74/74/1 90/90/1 
f 90/90/1 74/74/1 75/75/1 91/91/1 
f 91/91/1 75/75/1 76/76/1 92/92/1 
f 92/92/1 76/76/1 77/77/1 93/93/1 
f 93/93/1 77/77/1 78/78/1 94/94/1 
f 94/94/1 78/78/1 79/79/1 95/95/1 
f 95/95/1 79/79/1 80/80/1 96/96/1 
f 97/97/1 81/81/1 82/82/1 98/98/1 
f 98/98/1 82/82/1 83/83/1 99/99/1 
f 99/99/1 83/83/1 84/84/1 100/100/1 
f 100/100/1 84/84/1 85/85/1 101/101/1 
f 101/101/1 85/85/1 86/86/1 102/102/1 
f 102/102/1 86/86/1 87/87/1 103/103/1 
f 103/103/1 87/87/1 88/88/1 104/104/1 
f 104/104/1 88/88/1 89/89/1 105/105/1 
f 105/105/1 89/89/1 90/90/1 106/106/1 
f 106/106/1 90/90/1 91/91/1 107/107/1 
f 107/107/1 91/91/1 92/92/1 108/108/1 
f 108/108/1 92/92/1 93/93/1 109/109/1 
f 109/109/1 93/93/1 94/94/1 110/110/1 
f 110/110/1 94/94/1 95/95/1 111/111/1 
f 111/111/1 95/95/1 96/96/1 112/112/1 
f 113/113/1 97/97/1 98/98/1 114/114/1 
f 114/114/1 98/98/1 99/99/1 115/115/1 
f 115/115/1 99/99/1 100/100/1 116/116/1 
f 116/116/1 100/100/1 101/101/1 117/117/1 
f 117/117/1 101/101/1 102/102/1 118/118/1 
f 118/118/1 102/102/1 103/103/1 119/119/1 
f 119/119/1 103/103/1 104/104/1 120/120/1 
f 120/120/1 104/104/1 105/105/1 121/121/1 
f 121/121/1 105/105/1 106/106/1 122/122/1 
f 122/122/1 106/106/1 107/107/1 123/123/1 
f 123/123/1 107/107/1 108/108/1 124/124/1 
f 124/124/1 108/108/1 109/109/1 125/125/1 
f 125/125/1 109/109/1 110/110/1 126/126/1 
f 126/126/1 110/110/1 111/111/1 127/127/1 
f 127/127/1 111/111/1 112/112/1 128/128/1 
f 129/129/1 113/113/1 114/114/1 130/130/1 
f 130/130/1 114/114/1 115/115/1 131/131/1 
f 131/131/1 115/115/1 116/116/1 132/132/1 
f 132/132/1 116/116/1 117/117/1 133/133/1 
f 133/133/1 117/117/1 118/118/1 134/134/1 
f 134/134/1 118/118/1 119/119/1 135/135/1 
f 135/135/1 119/119/1 120/120/1 136/136/1 
f 136/136/1 120/120/1 121/121/1 137/137/1 
f 137/137/1 121/121/1 122/122/1 138/138/1 
f 138/138/1 122/122/1 123/123/1 139/139/1 
f 139/139/1 123/123/1 124/124/1 140/140/1 
f 140/140/1 124/124/1 125/125/1 141/141/1 
f 141/141/1 125/125/1 126/126/1 142/142/1 
f 142/142/1 126/126/1 127/127/1 143/143/1 
f 143/143/1 127/127/1 128/128/1 144/144/1 
f 145/145/1 129/129/1 130/130/1 146/146/1 
f 146/146/1 130/130/1 131/131/1 147/147/1 
f 147/147/1 131/131/1 132/132/1 148/148/1 
f 148/148/1 132/132/1 133/133/1 149/149/1 
f 149/149/1 133/133/1 134/134/1 150/150/1 
f 150/150/1 134/134/1 135/135/1 151/151/1 
f 151/151/1 135/135/1 136/136/1 152/152/1 
f 152/152/1 136/136/1 137/137/1 153/153/1 
f 153/153/1 137/137/1 138/138/1 154/154/1 
f 154/154/1 138/138/1 139/139/1 155/155/1 
f 155/155/1 139/139/1 140/140/1 156/156/1 
f 156/156/1 140/140/1 141/141/1 157/157/1 
f 157/157/1 141/141/1 142/142/1 158/158/1 
f 158/158/1 142/142/1 143/143/1 159/159/1 
f 159/159/1 143/143/1 144/144/1 160/160/1 
f 161/161/1 145/145/1 146/146/1 162/162/1 
f 162/162/1 146/146/1 147/147/1 163/163/1 
f 163/163/1 147/147/1 148/148/1 164/164/1 
f 164/164/1 148/148/1 149/149/1 165/165/1 
f 165/165/1 149/149/1 150/150/1 166/166/1 
f 166/166/1 150/150/1 151/151/1 167/167/1 
f 167/167/1 151/151/1 152/152/1 168/168/1 
f 168/168/1 152/152/1 153/153/1 169/169/1 
f 169/169/1 153/153/1 154/154/1 170/170/1 
f 170/170/1 154/154/1 155/155/1 171/171/1 
f 171/171/1 155/155/1 156/156/1 172/172/1 
f 172/172/1 156/156/1 157/157/1 173/173/1 
f 173/173/1 157/157/1 158/158/1 174/174/1 
f 174/174/1 158/158/1 159/159/1 175/175/1 
f 175/175/1 159/159/1 160/160/1 176/176/1 
f 177/177/1 161/161/1 162/162/1 178/178/1 
f 178/178/1 162/162/1 163/163/1 179/179/1 
f 179/179/1 163/163/1 164/164/1 180/180/1 
f 180/180/1 164/164/1 165/165/1 181/181/1 
f 181/181/1 165/165/1 166/166/1 182/182/1 
f 182/182/1 166/166/1 167/167/1 183/183/1 
f 183/183/1 167/167/1 168/168/1 184/184/1 
f 184/184/1 168/168/1 169/169/1 185/185/1 
f 185/185/1 169/169/1 170/170/1 186/186/1 
f 186/186/1 170/170/1 171/171/1 187/187/1 
f 187/187/1 171/171/1 172/172/1 188/188/1 
f 188/188/1 172/172/1 173/173/1 189/189/1 
f 189/189/1 173/173/1 174/174/1 190/190/1 
f 190/190/1 174/174/1 175/175/1 191/191/1 
f 191/191/1 175/175/1 176/176/1 192/192/1 
f 193/193/1 177/177/1 178/178/1 194/194/1 
f 194/194/1 178/178/1 179/179/1 195/195/1 
f 195/195/1 179/179/1 180/180/1 196/196/1 
f 196/196/1 180/180/1 181/181/1 197/197/1 
f 197/197/1 181/181/1 182/182/1 198/198/1 
f 198/198/1 182/182/1 183/183/1 199/199/1 
f 199/199/1 183/183/1 184/184/1 200/200/1 
f 200/200/1 184/184/1 185/185/1 201/201/1 
f 201/201/1 185/185/1 186/186/1 202/202/1 
f 202/202/1 186/186/1 187/187/1 203/203/1 
f 203/203/1 187/187/1 188/188/1 204/204/1 
f 204/204/1 188/188/1 189/189/1 205/205/1 
f 205/205/1 189/189/1 190/190/1 206/206/1 
f 206/206/1 190/190/1 191/191/1 207/207/1 
f 207/207/1 191/191/1 192/192/1 208/208/1 
f 209/209/1 193/193/1 194/194/1 210/210/1 
f 210/210/1 194/194/1 195/195/1 211/211/1 
f 211/211/1 195/195/1 196/196/1 212/212/1 
f 212/212/1 196/196/1 197/197/1 213/213/1 
f 213/213/1 197/197/1 198/198/1 214/214/1 
f 214/214/1 198/198/1 199/199/1 215/215/1 
f 215/215/1 199/199/1 200/200/1 216/216/1 
f 216/216/1 200/200/1 201/201/1 217/217/1 
f 217/217/1 201/201/1 202/202/1 218/218/1 
f 218/218/1 202/202/1 203/203/1 219/219/1 
f 219/219/1 203/203/1 204/204/1 220/220/1 
f 220/220/1 204/204/1 205/205/1 221/221/1 
f 221/221/1 205/205/1 206/206/1 222/222/1 
f 222/222/1 206/206/1 207/207/1 223/223/1 
f 223/223/1 207/207/1 208/208/1 224/224/1 
f 225/225/1 209/209/1 210/210/1 226/226/1 
f 226/226/1 210/210/1 211/211/1 227/227/1 
f 227/227/1 211/211/1 212/212/1 228/228/1 
f 228/228/1 212/212/1 213/213/1 229/229/1 
f 229/229/1 213/213/1 214/214/1 230/230/1 
f 230/230/1 214/214/1 215/215/1 231/231/1 
f 231/231/1 215/215/1 216/216/1 232/232/1 
f 232/232/1 216/216/1 217/217/1 233/233/1 
f 233/233/1 217/217/1 218/218/1 234/234/1 
f 234/234/1 218/218/1 219/219/1 235/235/1 
f 235/235/1 219/219/1 220/220/1 236/236/1 
f 236/236/1 220/220/1 221/221/1 237/237/1 
f 237/237/1 221/221/1 222/222/1 238/238/1 
f 238/238/1 222/222/1 223/223/1 239/239/1 
f 239/239/1 223/223/1 224/224/1 240/240/1 
f 241/241/1 225/225/1 226/226/1 242/242/1 
f 242/242/1 226/226/1 227/227/1 243/243/1 
f 243/243/1 227/227/1 228/228/1 244/244/1 
f 244/244/1 228/228/1 229/229/1 245/245/1 
f 245/245/1 229/229/1 230/230/1 246/246/1 
f 246/246/1 230/230/1 231/231/1 247/247/1 
f 247/247/1 231/231/1 232/232/1 248/248/1 
f 248/248/1 232/232/1 233/233/1 249/249/1 
f 249/249/1 233/233/1 234/234/1 250/250/1 
f 250/250/1 234/234/1 235/235/1 251/251/1 
f 251/251/1 235/235/1 236/236/1 252/252/1 
f 252/252/1 236/236/1 237/237/1 253/253/1 
f 253/253/1 237/237/1 238/238/1 254/254/1 
f 254/254/1 238/238/1 239/239/1 255/255/1 
f 255/255/1 239/239/1 240/240/1 256/256/1 
# 225 polygons

